<svg xmlns="http://www.w3.org/2000/svg" style="display:none"><symbol id="ft-brand-mark" viewBox="0 0 20 20"><path d="M6 3.25v13.5"/><path d="M6 4.25c2.4-.9 4.7-.55 7.25.85v4.35c-2.45-1.25-4.75-1.55-7.25-.65"/><path d="M3.25 13.5c1.65 0 2.65.15 3.8.9 1.25.85 2.45 1.1 4.2 1.1"/><circle cx="3.1" cy="13.5" r="1.35"/><circle cx="12.7" cy="15.5" r="1.35"/></symbol><symbol id="ft-flags" viewBox="0 0 20 20"><path d="M5 3v14"/><path d="M5 4c2.9-1 5.3-.45 8 1.05v5.1c-2.65-1.45-5.05-1.95-8-1"/><circle cx="5" cy="3" r=".8" fill="currentColor" stroke="none"/></symbol><symbol id="ft-audit-log" viewBox="0 0 20 20"><path d="M5 2.75h6.4L15 6.35v10.9H5z"/><path d="M11.4 2.75v3.6H15"/><path d="M7.3 9h5.4M7.3 12h5.4M7.3 15h3.5"/></symbol><symbol id="ft-api" viewBox="0 0 20 20"><rect x="2.75" y="3.25" width="14.5" height="13.5" rx="1.5"/><path d="M2.75 6.5h14.5"/><circle cx="5" cy="4.9" r=".55" fill="currentColor" stroke="none"/><path d="M8 9.2 6.25 11 8 12.8M12 9.2 13.75 11 12 12.8M10.65 8.7 9.35 13.3"/></symbol><symbol id="ft-targeting" viewBox="0 0 20 20"><circle cx="10" cy="10" r="5.6"/><circle cx="10" cy="10" r="2.35"/><path d="M10 1.9v2.5M10 15.6v2.5M1.9 10h2.5M15.6 10h2.5"/></symbol><symbol id="ft-evaluation" viewBox="0 0 20 20"><path d="M7 2.75h6M8 2.75v4.1l-4 7.2a1.9 1.9 0 0 0 1.65 2.85h8.7A1.9 1.9 0 0 0 16 14.05l-4-7.2v-4.1"/><path d="M6.7 12.1h6.6"/><circle cx="8" cy="14.45" r=".6" fill="currentColor" stroke="none"/><circle cx="11.1" cy="13.6" r=".45" fill="currentColor" stroke="none"/></symbol><symbol id="ft-settings" viewBox="0 0 20 20"><circle cx="10" cy="10" r="2.35"/><path d="M10 2.4v1.55M10 16.05v1.55M2.4 10h1.55M16.05 10h1.55"/><path d="m4.6 4.6 1.1 1.1M14.3 14.3l1.1 1.1M15.4 4.6l-1.1 1.1M5.7 14.3l-1.1 1.1"/><circle cx="10" cy="10" r="6.05"/></symbol><symbol id="ft-docs" viewBox="0 0 20 20"><path d="M3.5 4.2c2.5-.85 4.55-.5 6.5.8v11.1c-1.95-1.25-4-1.6-6.5-.75z"/><path d="M16.5 4.2c-2.5-.85-4.55-.5-6.5.8v11.1c1.95-1.25 4-1.6 6.5-.75z"/></symbol><symbol id="ft-repository" viewBox="0 0 20 20"><path d="M4 3.25h12v13.5H4z"/><path d="M7 3.25v13.5"/><path d="M9.6 7h3.8M9.6 10h3.8M9.6 13h2.4"/></symbol><symbol id="ft-external-link" viewBox="0 0 20 20"><path d="M11 3.5h5.5V9"/><path d="m9 11 7.5-7.5"/><path d="M8.2 5H4.8A1.8 1.8 0 0 0 3 6.8v8.4A1.8 1.8 0 0 0 4.8 17h8.4a1.8 1.8 0 0 0 1.8-1.8v-3.4"/></symbol><symbol id="ft-project" viewBox="0 0 20 20"><ellipse cx="10" cy="4.5" rx="5.5" ry="2.2"/><path d="M4.5 4.5v5c0 1.2 2.45 2.2 5.5 2.2s5.5-1 5.5-2.2v-5"/><path d="M4.5 9.5v5c0 1.2 2.45 2.2 5.5 2.2s5.5-1 5.5-2.2v-5"/></symbol><symbol id="ft-environment" viewBox="0 0 20 20"><path d="M3.25 6.25 10 2.75l6.75 3.5L10 9.75z"/><path d="m3.25 10.25 6.75 3.5 6.75-3.5"/><path d="m3.25 14.25 6.75 3.5 6.75-3.5"/></symbol><symbol id="ft-search" viewBox="0 0 20 20"><circle cx="8.7" cy="8.7" r="5.2"/><path d="m12.6 12.6 4.15 4.15"/></symbol><symbol id="ft-filter" viewBox="0 0 20 20"><path d="M3 4h14l-5.35 6v4.9l-3.3 1.7V10z"/></symbol><symbol id="ft-sort" viewBox="0 0 20 20"><path d="M6 3.25v13.5M3.8 5.45 6 3.25l2.2 2.2"/><path d="M14 16.75V3.25M11.8 14.55l2.2 2.2 2.2-2.2"/></symbol><symbol id="ft-columns" viewBox="0 0 20 20"><rect x="3" y="3.5" width="14" height="13" rx="1.2"/><path d="M8 3.5v13M12 3.5v13"/></symbol><symbol id="ft-plus" viewBox="0 0 20 20"><path d="M10 3.5v13M3.5 10h13"/></symbol><symbol id="ft-minus" viewBox="0 0 20 20"><path d="M3.5 10h13"/></symbol><symbol id="ft-copy" viewBox="0 0 20 20"><rect x="6.25" y="6.25" width="9.25" height="9.25" rx="1.4"/><path d="M13.75 6.25V4.7A1.2 1.2 0 0 0 12.55 3.5H4.7A1.2 1.2 0 0 0 3.5 4.7v7.85a1.2 1.2 0 0 0 1.2 1.2h1.55"/></symbol><symbol id="ft-more-horizontal" viewBox="0 0 20 20"><circle cx="4.2" cy="10" r=".9" fill="currentColor" stroke="none"/><circle cx="10" cy="10" r=".9" fill="currentColor" stroke="none"/><circle cx="15.8" cy="10" r=".9" fill="currentColor" stroke="none"/></symbol><symbol id="ft-chevron-down" viewBox="0 0 20 20"><path d="m5.25 7.5 4.75 4.75 4.75-4.75"/></symbol><symbol id="ft-chevron-right" viewBox="0 0 20 20"><path d="m7.5 5.25 4.75 4.75-4.75 4.75"/></symbol><symbol id="ft-arrow-left" viewBox="0 0 20 20"><path d="M16.5 10h-13M8 4.5 2.5 10 8 15.5"/></symbol><symbol id="ft-check" viewBox="0 0 20 20"><path d="m3.75 10.2 3.7 3.65 8.8-8.2"/></symbol><symbol id="ft-close" viewBox="0 0 20 20"><path d="m4.5 4.5 11 11M15.5 4.5l-11 11"/></symbol><symbol id="ft-trash" viewBox="0 0 20 20"><path d="M4.5 6h11M7 6V3.75h6V6M6 6l.75 10.25h6.5L14 6"/><path d="M8.5 9v4.5M11.5 9v4.5"/></symbol><symbol id="ft-edit" viewBox="0 0 20 20"><path d="m4 13.75-.55 3 3-.55L15.5 7.15 12.85 4.5z"/><path d="m11.8 5.55 2.65 2.65"/></symbol><symbol id="ft-activity" viewBox="0 0 20 20"><path d="M2.75 10h3.1l1.55-4.25L10 14.5l2.1-6.25L13.5 10h3.75"/></symbol><symbol id="ft-history" viewBox="0 0 20 20"><path d="M4.25 5.9A6.4 6.4 0 1 1 3.6 13"/><path d="M4.25 2.8v3.1h3.1M10 6.4v3.8l2.8 1.6"/></symbol><symbol id="ft-key" viewBox="0 0 20 20"><circle cx="7.25" cy="10" r="3.25"/><path d="M10.5 10h6M14 10v2M16 10v1.3"/></symbol><symbol id="ft-refresh" viewBox="0 0 20 20"><path d="M15.7 7.2A6 6 0 0 0 5.1 5.1L3.25 7"/><path d="M3.25 3.5V7H6.8"/><path d="M4.3 12.8A6 6 0 0 0 14.9 14.9l1.85-1.9"/><path d="M16.75 16.5V13H13.2"/></symbol><symbol id="ft-terminal" viewBox="0 0 20 20"><rect x="2.75" y="3.5" width="14.5" height="13" rx="1.4"/><path d="m5.2 7.2 2.3 2.3-2.3 2.3M9.3 12h4.2"/></symbol><symbol id="ft-code" viewBox="0 0 20 20"><path d="m7.2 5.25-4 4.75 4 4.75M12.8 5.25l4 4.75-4 4.75M11.2 3.75 8.8 16.25"/></symbol><symbol id="ft-warning" viewBox="0 0 20 20"><path d="M10 2.6 17.15 16H2.85z"/><path d="M10 7v4.5M10 14.2h.01"/></symbol><symbol id="ft-info" viewBox="0 0 20 20"><circle cx="10" cy="10" r="7"/><path d="M10 9v4M10 6.4h.01"/></symbol><symbol id="ft-lock" viewBox="0 0 20 20"><rect x="4.25" y="8.5" width="11.5" height="8" rx="1.4"/><path d="M6.75 8.5V6a3.25 3.25 0 0 1 6.5 0v2.5"/></symbol><symbol id="ft-bolt" viewBox="0 0 20 20"><path d="M11.2 2.75 5.75 10h3.8l-.75 7.25 5.45-7.25h-3.8z"/></symbol></svg>